<svg xmlns="http://www.w3.org/2000/svg" width="933.333" height="933.333" version="1.0" viewBox="0 0 700 700"><g><path d="M113.3 33.1c-9.5 1.2-17.9 3.8-28.2 8.5-26.3 12.3-44.9 34.5-52.7 62.9-1.8 6.8-1.9 13.4-1.9 244.5v237.5l2.3 8c10.2 35.8 40.1 62.6 76.9 69 12.9 2.3 467.7 2.3 480.6 0 30.6-5.3 56.7-24.7 70.2-52 5.6-11.5 8.3-21.2 9.5-35 1.3-14.7 1.3-439.9 0-455.5-1.5-17.9-6.1-31.4-15.4-45.3-5.8-8.8-16-19.4-24.1-25.3-7.2-5.2-23.6-12.8-33.5-15.6l-8.5-2.3-234.5-.1c-129-.1-237.3.2-240.7.7m472.6 48.4c16.5 4.3 29.7 17.2 34.5 33.4 1.4 4.9 1.6 27.8 1.6 233.7 0 224 0 228.3-2 234.5-2 6.7-6.4 14.4-10.9 19.3-4.3 4.7-14 10.5-21.6 12.9l-7 2.2h-461l-7-2.2c-7.6-2.4-17.3-8.2-21.6-12.9-4.5-4.9-8.9-12.6-10.9-19.3-2-6.2-2-10.5-2-234.5 0-205.4.2-228.8 1.6-233.7 4.7-16.1 17.5-28.5 34.4-33.4 7-2.1 464.2-2.1 471.9 0"/><path d="M141.4 109c-15.3 2.3-27.2 13.6-30.5 28.9-.6 3-.9 18-.7 39.7.3 33.7.4 35.1 2.6 40.6 3.2 8 9.9 15 18 19l6.7 3.3h80l5.7-2.7c6.9-3.2 14.6-10.6 17.7-17 3.4-7.1 4.1-14.6 4.1-46.3 0-31.3-.8-39.1-4.5-46.5-3.2-6.4-12.2-14.3-19.3-17.1-5.5-2.2-7-2.3-40.2-2.5-19-.1-36.8.1-39.6.6m173.3 0c-11.9 1.9-22.2 9.7-27.6 21l-2.6 5.5v78l2.9 6.2c3.5 7.6 10.4 14.4 18.4 18.1l5.7 2.7 37 .3c32.2.3 37.8.1 43.2-1.3 11.6-3.1 21-12.1 24.8-23.5 1.4-4.1 1.5-10.2 1.3-43.1l-.3-38.4-2.8-5.7c-3.6-7.3-11.9-14.9-19.5-17.9-5.5-2.2-7-2.3-40.2-2.5-19-.1-37.1.2-40.3.6m173.3.1c-11.5 2-21 9-26.2 19.7l-3.3 6.7v79l2.7 5.5c3.7 7.5 10 13.7 17.8 17.4l6.5 3.1h79l5.7-2.7c8-3.7 14.9-10.5 18.4-18.1l2.9-6.2v-78l-2.6-5.5c-5.7-11.8-15.6-19.1-28.5-21-8.5-1.2-64.8-1.1-72.4.1M136.9 281.3c-10.6 3-20 11.3-24.1 21.6-2.3 5.5-2.3 6.4-2.3 43.1 0 34.4.2 37.9 1.9 42.5 3.8 10.1 11.2 17.6 21.4 21.7 5.6 2.3 6.4 2.3 43.7 2.3 37.4 0 38.1 0 43.7-2.3 7.1-2.9 16.1-10.9 19.3-17.2 3.7-7.4 4.5-15.2 4.5-46.5 0-31.7-.7-39.2-4.1-46.3-3.1-6.4-10.8-13.8-17.7-17l-5.7-2.7-38-.2c-28-.2-39.2.1-42.6 1m174.8-.2c-10 2.4-19.8 10.5-24.3 20.2l-2.9 6.2v78l2.6 5.5c5.7 11.9 15.4 19 28.8 21.1 4.7.7 18.8.9 40.4.7 31.6-.4 33.5-.5 38.9-2.7 7.6-3 15.9-10.6 19.5-17.9l2.8-5.7.3-38.4c.2-32.9.1-39-1.3-43.1-3.7-11.1-12.4-19.6-23.6-23.1-5.5-1.7-9.5-1.9-41.7-1.8-19.7.1-37.4.5-39.5 1m172.8.3c-10.6 3.4-18.7 10.2-23.3 19.6l-2.7 5.5-.3 37.3c-.3 41.5-.1 43.7 6 52.8 1.8 2.7 5.6 6.6 8.3 8.6 8.9 6.8 11 7.1 47.7 7.6 21.2.2 35.3 0 39.9-.8 13.4-2 23.1-9.2 28.8-21l2.6-5.5v-78l-2.9-6.2c-3.5-7.6-10.4-14.4-18.4-18.1l-5.7-2.7-38-.2c-28.9-.2-39 .1-42 1.1m-351.7 173c-9.4 3.9-14.9 9.2-19.6 19.3l-2.7 5.8v38c0 37.8 0 38 2.4 44 3 7.5 10.9 15.6 18.8 19.3l5.8 2.7 37.4.3c35.4.3 37.7.2 44-1.7 11.4-3.6 19.3-11.1 23.7-22.6 1.7-4.6 1.9-8 1.9-42 0-36.8 0-37-2.4-43-3.3-8.3-12.5-17.4-20.4-20.3-5.6-2.1-7.2-2.2-44.5-2.2-38.2 0-38.8.1-44.4 2.4"/></g></svg>