<?xml version="1.0" standalone="no"?>
<!DOCTYPE svg PUBLIC "-//W3C//DTD SVG 20010904//EN"
 "http://www.w3.org/TR/2001/REC-SVG-20010904/DTD/svg10.dtd">
<svg version="1.0" xmlns="http://www.w3.org/2000/svg"
 width="700.000000pt" height="700.000000pt" viewBox="0 0 700.000000 700.000000"
 preserveAspectRatio="xMidYMid meet">
<metadata>
Created by potrace 1.14, written by Peter Selinger 2001-2017
</metadata>
<g transform="translate(0.000000,700.000000) scale(0.100000,-0.100000)"
fill="#000000" stroke="none">
<path d="M1133 6669 c-95 -12 -179 -38 -282 -85 -263 -123 -449 -345 -527
-629 -18 -68 -19 -134 -19 -2445 l0 -2375 23 -80 c102 -358 401 -626 769 -690
129 -23 4677 -23 4806 0 306 53 567 247 702 520 56 115 83 212 95 350 13 147
13 4399 0 4555 -15 179 -61 314 -154 453 -58 88 -160 194 -241 253 -72 52
-236 128 -335 156 l-85 23 -2345 1 c-1290 1 -2373 -2 -2407 -7z m4726 -484
c165 -43 297 -172 345 -334 14 -49 16 -278 16 -2337 0 -2240 0 -2283 -20
-2345 -20 -67 -64 -144 -109 -193 -43 -47 -140 -105 -216 -129 l-70 -22 -2305
0 -2305 0 -70 22 c-76 24 -173 82 -216 129 -45 49 -89 126 -109 193 -20 62
-20 105 -20 2345 0 2054 2 2288 16 2337 47 161 175 285 344 334 70 21 4642 21
4719 0z"/>
<path d="M1414 5910 c-153 -23 -272 -136 -305 -289 -6 -30 -9 -180 -7 -397 3
-337 4 -351 26 -406 32 -80 99 -150 180 -190 l67 -33 400 0 400 0 57 27 c69
32 146 106 177 170 34 71 41 146 41 463 0 313 -8 391 -45 465 -32 64 -122 143
-193 171 -55 22 -70 23 -402 25 -190 1 -368 -1 -396 -6z"/>
<path d="M3147 5910 c-119 -19 -222 -97 -276 -210 l-26 -55 0 -390 0 -390 29
-62 c35 -76 104 -144 184 -181 l57 -27 370 -3 c322 -3 378 -1 432 13 116 31
210 121 248 235 14 41 15 102 13 431 l-3 384 -28 57 c-36 73 -119 149 -195
179 -55 22 -70 23 -402 25 -190 1 -371 -2 -403 -6z"/>
<path d="M4880 5909 c-115 -20 -210 -90 -262 -197 l-33 -67 0 -395 0 -395 27
-55 c37 -75 100 -137 178 -174 l65 -31 395 0 395 0 57 27 c80 37 149 105 184
181 l29 62 0 390 0 390 -26 55 c-57 118 -156 191 -285 210 -85 12 -648 11
-724 -1z"/>
<path d="M1369 4187 c-106 -30 -200 -113 -241 -216 -23 -55 -23 -64 -23 -431
0 -344 2 -379 19 -425 38 -101 112 -176 214 -217 56 -23 64 -23 437 -23 374 0
381 0 437 23 71 29 161 109 193 172 37 74 45 152 45 465 0 317 -7 392 -41 463
-31 64 -108 138 -177 170 l-57 27 -380 2 c-280 2 -392 -1 -426 -10z"/>
<path d="M3117 4189 c-100 -24 -198 -105 -243 -202 l-29 -62 0 -390 0 -390 26
-55 c57 -119 154 -190 288 -211 47 -7 188 -9 404 -7 316 4 335 5 389 27 76 30
159 106 195 179 l28 57 3 384 c2 329 1 390 -13 431 -37 111 -124 196 -236 231
-55 17 -95 19 -417 18 -197 -1 -374 -5 -395 -10z"/>
<path d="M4845 4186 c-106 -34 -187 -102 -233 -196 l-27 -55 -3 -373 c-3 -415
-1 -437 60 -528 18 -27 56 -66 83 -86 89 -68 110 -71 477 -76 212 -2 353 0
399 8 134 20 231 92 288 210 l26 55 0 390 0 390 -29 62 c-35 76 -104 144 -184
181 l-57 27 -380 2 c-289 2 -390 -1 -420 -11z"/>
<path d="M1328 2456 c-94 -39 -149 -92 -196 -193 l-27 -58 0 -380 c0 -378 0
-380 24 -440 30 -75 109 -156 188 -193 l58 -27 374 -3 c354 -3 377 -2 440 17
114 36 193 111 237 226 17 46 19 80 19 420 0 368 0 370 -24 430 -33 83 -125
174 -204 203 -56 21 -72 22 -445 22 -382 0 -388 -1 -444 -24z"/>
</g>
</svg>
