<svg width="40" height="40" viewBox="0 0 40 40" fill="none" xmlns="http://www.w3.org/2000/svg">
<circle cx="20" cy="20" r="18" stroke="#B24FA3" stroke-width="4"/>
<path d="M23.505 30.9336C24.7289 30.6025 25.343 29.2434 24.789 28.0907C24.6602 27.8284 24.3467 27.5015 20.7565 23.9059L16.8657 20.0006L20.7565 16.0997C23.6982 13.1449 24.6731 12.1428 24.759 11.9751C25.1798 11.1665 25.0424 10.2375 24.4025 9.58804C23.8013 8.98161 22.8737 8.82678 22.0878 9.20526C21.8258 9.33429 21.4608 9.69127 17.0761 14.0825C12.6914 18.4738 12.335 18.8394 12.2061 19.1017C11.9313 19.6738 11.9313 20.3275 12.2061 20.8995C12.335 21.1619 12.6914 21.5318 17.0117 25.8628C19.5755 28.4348 21.7657 30.5982 21.8774 30.6713C22.3583 30.9809 22.9682 31.0799 23.505 30.9336Z" fill="#B24FA3" stroke="#B24FA3"/>
</svg>
