<svg width="28" height="28" viewBox="0 0 28 28" fill="none" xmlns="http://www.w3.org/2000/svg">
<path d="M4.0602 0.419994C2.74428 0.895994 2.04433 1.65199 1.82035 2.884C1.56836 4.28399 1.84834 23.744 2.15632 25.592C2.4923 27.636 2.94027 28 5.09613 28C6.86001 28 7.83994 27.412 7.83994 26.32C7.83994 25.788 8.03593 25.76 13.9995 25.76C19.9631 25.76 20.1591 25.788 20.1591 26.32C20.1591 27.412 21.1391 28 22.9029 28C23.8269 28 24.7508 27.832 25.0588 27.608C25.8987 26.992 26.1227 24.612 26.2347 13.692C26.3467 2.23999 26.2907 1.73599 24.6668 0.643993C23.7149 -5.72205e-06 23.6589 -5.72205e-06 14.4475 -5.72205e-06C7.19599 0.0279942 4.92814 0.111994 4.0602 0.419994ZM20.5791 3.35999V4.33999H14.2795H7.97993L7.89594 3.696C7.67195 2.21199 7.61596 2.21199 14.3355 2.29599L20.5791 2.37999V3.35999ZM23.0149 6.636C23.4629 7.028 23.5189 7.56 23.5189 11.116C23.5189 14.756 23.4629 15.176 22.9589 15.68C22.427 16.212 22.035 16.24 13.9435 16.24C6.49603 16.24 5.4321 16.184 4.98413 15.764C4.53616 15.372 4.48017 14.84 4.48017 11.256C4.48017 7.868 4.56416 7.112 4.95614 6.664C5.37611 6.188 6.02006 6.15999 13.9435 6.15999C21.503 6.15999 22.567 6.216 23.0149 6.636ZM7.75595 19.656C8.56789 20.412 8.56789 21.476 7.78395 22.316C7.028 23.128 5.96407 23.128 5.12412 22.344C4.31218 21.588 4.31218 20.524 5.09613 19.684C5.85208 18.872 6.916 18.872 7.75595 19.656ZM22.8749 19.656C23.6869 20.412 23.6869 21.476 22.9029 22.316C22.147 23.128 21.0831 23.128 20.2431 22.344C19.4312 21.588 19.4312 20.524 20.2151 19.684C20.9711 18.872 22.035 18.872 22.8749 19.656Z" fill="url(#paint0_linear_1236_1413)"/>
<path d="M0.335978 7.05643C-0.111993 7.50443 -0.111993 12.6564 0.335978 13.1044C0.531964 13.3004 0.783948 13.4404 0.89594 13.4404C1.00793 13.4404 1.11993 11.9284 1.11993 10.0804C1.11993 8.23243 1.00793 6.72043 0.89594 6.72043C0.783948 6.72043 0.531964 6.86043 0.335978 7.05643Z" fill="url(#paint1_linear_1236_1413)"/>
<path d="M26.8809 10.0795C26.8809 11.9275 26.9929 13.4395 27.1048 13.4395C27.7768 13.4395 28.0008 12.5995 28.0008 10.0795C28.0008 7.55945 27.7768 6.71945 27.1048 6.71945C26.9929 6.71945 26.8809 8.23145 26.8809 10.0795Z" fill="url(#paint2_linear_1236_1413)"/>
<defs>
<linearGradient id="paint0_linear_1236_1413" x1="13.9967" y1="28" x2="13.9967" y2="-5.72205e-06" gradientUnits="userSpaceOnUse">
<stop stop-color="#941B81"/>
<stop offset="0.458333" stop-color="#801F82"/>
<stop offset="1" stop-color="#672383"/>
</linearGradient>
<linearGradient id="paint1_linear_1236_1413" x1="0.559963" y1="13.4404" x2="0.559963" y2="6.72043" gradientUnits="userSpaceOnUse">
<stop stop-color="#941B81"/>
<stop offset="0.458333" stop-color="#801F82"/>
<stop offset="1" stop-color="#672383"/>
</linearGradient>
<linearGradient id="paint2_linear_1236_1413" x1="27.4408" y1="13.4395" x2="27.4408" y2="6.71945" gradientUnits="userSpaceOnUse">
<stop stop-color="#941B81"/>
<stop offset="0.458333" stop-color="#801F82"/>
<stop offset="1" stop-color="#672383"/>
</linearGradient>
</defs>
</svg>
