<svg xmlns="http://www.w3.org/2000/svg" width="29" height="29" fill="none"><path fill="url(#a)" d="M.748 7.193c-.456.456-.456 5.697 0 6.152.199.2.455.342.57.342.113 0 .227-1.538.227-3.418 0-1.88-.114-3.418-.228-3.418s-.37.142-.57.342Z"/><path fill="url(#b)" d="M27.751 10.268c0 1.88.114 3.418.228 3.418.684 0 .912-.854.912-3.418 0-2.563-.228-3.418-.912-3.418-.114 0-.228 1.538-.228 3.418Z"/><path fill="url(#c)" fill-rule="evenodd" d="M4.536.441c-1.338.485-2.05 1.254-2.278 2.507C2 4.372 2.286 24.17 2.599 26.05c.342 2.08.798 2.45 2.991 2.45 1.795 0 2.791-.598 2.791-1.71 0-.54.2-.569 6.267-.569s6.266.029 6.266.57c0 1.11.997 1.709 2.791 1.709.94 0 1.88-.17 2.194-.399.854-.626 1.082-3.048 1.196-14.157C27.209 2.293 27.152 1.78 25.5.67 24.53.014 24.474.014 15.103.014 7.726.043 5.42.128 4.536.441Zm19.796 10.882c0-3.618-.057-4.16-.513-4.558-.456-.427-1.538-.484-9.228-.484-8.06 0-8.716.028-9.143.513-.399.455-.484 1.224-.484 4.671 0 3.646.056 4.187.512 4.586.456.427 1.538.484 9.115.484 8.231 0 8.63-.028 9.171-.57.513-.512.57-.94.57-4.642ZM6.97 23.37a1.974 1.974 0 1 0 0-3.948 1.974 1.974 0 0 0 0 3.948Zm15.37 0a1.974 1.974 0 1 0 0-3.948 1.974 1.974 0 0 0 0 3.948ZM21.18 2.175H8.119a1 1 0 0 0-1 1v.524a1 1 0 0 0 1 1h13.06a1 1 0 0 0 1-1v-.524a1 1 0 0 0-1-1Z" clip-rule="evenodd"/><defs><linearGradient id="a" x1="14.648" x2="14.648" y1=".014" y2="28.499" gradientUnits="userSpaceOnUse"><stop stop-color="#941B81"/><stop offset=".458" stop-color="#801F82"/><stop offset="1" stop-color="#672383"/></linearGradient><linearGradient id="b" x1="14.648" x2="14.648" y1=".014" y2="28.499" gradientUnits="userSpaceOnUse"><stop stop-color="#941B81"/><stop offset=".458" stop-color="#801F82"/><stop offset="1" stop-color="#672383"/></linearGradient><linearGradient id="c" x1="14.648" x2="14.648" y1=".014" y2="28.499" gradientUnits="userSpaceOnUse"><stop stop-color="#941B81"/><stop offset=".458" stop-color="#801F82"/><stop offset="1" stop-color="#672383"/></linearGradient></defs></svg>