<svg width="28" height="28" viewBox="0 0 28 28" fill="none" xmlns="http://www.w3.org/2000/svg">
<path d="M26.9979 0.0810833C26.9068 0.131361 23.8256 3.35917 20.1496 7.26069C16.479 11.1572 13.4085 14.4001 13.3281 14.4604C13.1674 14.5861 12.8995 14.6112 12.7119 14.5157C12.6476 14.4855 11.5705 13.5856 10.322 12.5197C9.07341 11.4538 7.95346 10.5187 7.83021 10.4382C7.13359 10.0008 6.18512 9.94047 5.39741 10.2874C4.95264 10.4835 4.45965 10.951 4.22387 11.3935C4.04704 11.7303 4.02024 11.8208 4.00417 12.2482C3.97738 12.8113 4.07919 13.2387 4.32568 13.6007C4.62041 14.0381 11.0829 21.4238 11.3026 21.5747C12.2457 22.2283 13.5532 22.1176 14.3731 21.3182C14.5928 21.1071 16.3075 18.548 21.3339 10.9561C27.2819 1.96146 28 0.855354 28 0.674356C28 0.417942 27.85 0.186666 27.6088 0.0810833C27.3677 -0.0295277 27.2123 -0.0244999 26.9979 0.0810833Z" fill="#B24FA3"/>
<path d="M3.45228 4.09864C1.93195 4.37621 0.770124 5.37417 0.172614 6.89424L0 7.33704V15.9948V24.6526L0.172614 25.1284C0.677178 26.5031 1.93195 27.6002 3.3195 27.891C4.0166 28.0363 19.9502 28.0363 20.6473 27.891C21.8954 27.6332 23.0041 26.7542 23.6017 25.558C23.9934 24.7649 24 24.7253 24 20.1188V15.9155L23.8473 15.6247C23.761 15.4661 23.5618 15.2414 23.4091 15.1356C23.1502 14.9572 23.0772 14.9374 22.6058 14.9374C22.1344 14.9374 22.0614 14.9572 21.8025 15.1356C21.6498 15.2414 21.4506 15.4661 21.3643 15.6247L21.2116 15.9155V19.8346C21.2116 22.313 21.1851 23.8727 21.1452 24.0776C21.0589 24.4741 20.7469 24.8574 20.3884 25.0227C20.1295 25.1416 19.751 25.1482 11.9834 25.1482C4.21577 25.1482 3.83734 25.1416 3.57842 25.0227C3.21328 24.8574 2.90788 24.4741 2.82158 24.0644C2.76846 23.8264 2.75519 21.3415 2.76846 15.7965L2.78838 7.86576L2.95436 7.56835C3.0473 7.40973 3.25311 7.18503 3.40581 7.07268L3.69793 6.87441L11.1071 6.84136C19.3793 6.80171 18.7021 6.84797 19.1469 6.33908C19.4257 6.02846 19.4855 5.85662 19.4855 5.41382C19.4855 4.77275 19.0606 4.22421 18.4498 4.0722C18.005 3.95985 4.06971 3.98629 3.45228 4.09864Z" fill="#B24FA3"/>
</svg>
