<svg width="36" height="36" viewBox="0 0 36 36" fill="none" xmlns="http://www.w3.org/2000/svg">
<path d="M30.5742 1.07943e-06H5.42583C4.71347 -0.000448407 4.00799 0.139485 3.34972 0.411811C2.69145 0.684137 2.09328 1.08352 1.5894 1.58713C1.08552 2.09074 0.685807 2.68871 0.413091 3.34687C0.140376 4.00503 -1.41777e-07 4.71049 0 5.42292V30.5771C0.000906953 32.0156 0.57296 33.395 1.5904 34.4119C2.60784 35.4288 3.98741 36 5.42583 36H30.5742C32.0126 36 33.3922 35.4288 34.4096 34.4119C35.4271 33.395 35.9991 32.0156 36 30.5771V5.42292C36 4.71049 35.8596 4.00503 35.5869 3.34687C35.3142 2.68871 34.9145 2.09074 34.4106 1.58713C33.9067 1.08352 33.3086 0.684137 32.6503 0.411811C31.992 0.139485 31.2865 -0.000448407 30.5742 1.07943e-06ZM33.311 30.5429C33.3101 31.2764 33.0181 31.9795 32.4992 32.4979C31.9803 33.0162 31.2768 33.3074 30.5434 33.3074H5.45662C4.7235 33.3074 4.02041 33.0161 3.50202 32.4977C2.98363 31.9792 2.6924 31.2761 2.6924 30.5429V5.45714C2.6924 4.72363 2.98352 4.02012 3.50181 3.50113C4.02011 2.98215 4.72319 2.69013 5.45662 2.68922H30.54C31.274 2.68922 31.978 2.98084 32.497 3.49993C33.016 4.01901 33.3076 4.72304 33.3076 5.45714L33.311 30.5429Z" fill="url(#paint0_linear_1236_1443)"/>
<path d="M19.8061 4.33728H16.3303C15.2098 4.33728 14.3016 5.24564 14.3016 6.36617V9.83889C14.3016 10.9594 15.2098 11.8678 16.3303 11.8678H19.8061C20.9265 11.8678 21.8348 10.9594 21.8348 9.83889V6.36617C21.8348 5.24564 20.9265 4.33728 19.8061 4.33728Z" fill="url(#paint1_linear_1236_1443)"/>
<path d="M10.0407 4.33828H6.56486C5.44444 4.33828 4.53616 5.24665 4.53616 6.36717V9.8399C4.53616 10.9604 5.44444 11.8688 6.56486 11.8688H10.0407C11.1611 11.8688 12.0694 10.9604 12.0694 9.8399V6.36717C12.0694 5.24665 11.1611 4.33828 10.0407 4.33828Z" fill="url(#paint2_linear_1236_1443)"/>
<path d="M29.5592 4.33728H26.0937C24.9732 4.33728 24.065 5.24564 24.065 6.36617V9.83889C24.065 10.9594 24.9732 11.8678 26.0937 11.8678H29.5592C30.6796 11.8678 31.5879 10.9594 31.5879 9.83889V6.36617C31.5879 5.24564 30.6796 4.33728 29.5592 4.33728Z" fill="url(#paint3_linear_1236_1443)"/>
<path d="M10.0407 23.857H6.56486C5.44444 23.857 4.53616 24.7654 4.53616 25.8859V29.3518C4.53616 30.4723 5.44444 31.3807 6.56486 31.3807H10.0407C11.1611 31.3807 12.0694 30.4723 12.0694 29.3518V25.8859C12.0694 24.7654 11.1611 23.857 10.0407 23.857Z" fill="url(#paint4_linear_1236_1443)"/>
<path d="M10.0407 14.0997H6.56486C5.44444 14.0997 4.53616 15.008 4.53616 16.1286V19.6013C4.53616 20.7218 5.44444 21.6302 6.56486 21.6302H10.0407C11.1611 21.6302 12.0694 20.7218 12.0694 19.6013V16.1286C12.0694 15.008 11.1611 14.0997 10.0407 14.0997Z" fill="url(#paint5_linear_1236_1443)"/>
<path d="M19.8061 14.0997H16.3303C15.2098 14.0997 14.3016 15.008 14.3016 16.1286V19.6013C14.3016 20.7218 15.2098 21.6302 16.3303 21.6302H19.8061C20.9265 21.6302 21.8348 20.7218 21.8348 19.6013V16.1286C21.8348 15.008 20.9265 14.0997 19.8061 14.0997Z" fill="url(#paint6_linear_1236_1443)"/>
<path d="M29.5592 14.0997H26.0937C24.9732 14.0997 24.065 15.008 24.065 16.1286V19.6013C24.065 20.7218 24.9732 21.6302 26.0937 21.6302H29.5592C30.6796 21.6302 31.5879 20.7218 31.5879 19.6013V16.1286C31.5879 15.008 30.6796 14.0997 29.5592 14.0997Z" fill="url(#paint7_linear_1236_1443)"/>
<defs>
<linearGradient id="paint0_linear_1236_1443" x1="6.69847" y1="37.5773" x2="29.3047" y2="-1.57541" gradientUnits="userSpaceOnUse">
<stop stop-color="#662483"/>
<stop offset="1" stop-color="#951B81"/>
</linearGradient>
<linearGradient id="paint1_linear_1236_1443" x1="0" y1="17.9918" x2="36" y2="17.9918" gradientUnits="userSpaceOnUse">
<stop stop-color="#95C11F"/>
<stop offset="1" stop-color="#3AAA35"/>
</linearGradient>
<linearGradient id="paint2_linear_1236_1443" x1="0" y1="17.9918" x2="36" y2="17.9918" gradientUnits="userSpaceOnUse">
<stop stop-color="#E6007E"/>
<stop offset="1" stop-color="#D60B52"/>
</linearGradient>
<linearGradient id="paint3_linear_1236_1443" x1="0" y1="17.9918" x2="36" y2="17.9918" gradientUnits="userSpaceOnUse">
<stop stop-color="#F39200"/>
<stop offset="1" stop-color="#EA5B0C"/>
</linearGradient>
<linearGradient id="paint4_linear_1236_1443" x1="0" y1="18.0082" x2="36" y2="18.0082" gradientUnits="userSpaceOnUse">
<stop stop-color="#951B81"/>
<stop offset="1" stop-color="#80166F"/>
</linearGradient>
<linearGradient id="paint5_linear_1236_1443" x1="0" y1="17.9918" x2="36" y2="17.9918" gradientUnits="userSpaceOnUse">
<stop stop-color="#009FE3"/>
<stop offset="1" stop-color="#1D71B8"/>
</linearGradient>
<linearGradient id="paint6_linear_1236_1443" x1="0" y1="17.9918" x2="36" y2="17.9918" gradientUnits="userSpaceOnUse">
<stop stop-color="#5B3173"/>
<stop offset="1" stop-color="#4F2963"/>
</linearGradient>
<linearGradient id="paint7_linear_1236_1443" x1="24.0645" y1="17.8632" x2="31.5874" y2="17.8632" gradientUnits="userSpaceOnUse">
<stop stop-color="#E30613"/>
<stop offset="1" stop-color="#BE1622"/>
</linearGradient>
</defs>
</svg>
