<svg width="20" height="28" viewBox="0 0 20 28" fill="none" xmlns="http://www.w3.org/2000/svg">
<path d="M8.81031 0.0351715C7.31124 0.206133 5.48602 0.921637 4.18766 1.84609C3.51653 2.32732 2.42516 3.40374 1.96102 4.04326C1.01391 5.35397 0.405498 6.77231 0.110702 8.36795C-0.0210151 9.09612 -0.0398319 10.888 0.0793408 11.5782C0.537215 14.1743 1.79794 17.0806 4.05595 20.7468C5.36057 22.868 8.32107 27.1737 8.72877 27.5346C9.42499 28.1551 10.5791 28.1551 11.2753 27.5346C11.7206 27.1357 14.9571 22.3994 16.2555 20.2529C18.156 17.0933 19.3414 14.3833 19.8244 12.0531C19.9749 11.3313 20 11.0907 20 10.0902C20 8.86184 19.9185 8.27297 19.6299 7.2472C18.5511 3.49239 15.3397 0.674692 11.476 0.0858269C10.899 -0.00282097 9.38108 -0.0281487 8.81031 0.0351715ZM11.4447 5.61991C12.6552 6.03148 13.6462 6.89262 14.1731 7.99437C14.5369 8.75419 14.6623 9.29241 14.6623 10.1219C14.6623 12.7116 12.5862 14.8075 10.0209 14.8075C9.24937 14.8075 8.65978 14.6682 7.96356 14.3326C6.71538 13.7184 5.86235 12.68 5.47975 11.2933C5.29158 10.6094 5.29158 9.60267 5.47975 8.89983C5.91253 7.25354 7.36142 5.82886 8.93575 5.50593C9.12392 5.46794 9.33718 5.42362 9.40617 5.41095C9.47517 5.39196 9.82641 5.38563 10.1902 5.39829C10.7296 5.41728 10.9554 5.45528 11.4447 5.61991Z" fill="#B24FA3"/>
</svg>
