<svg width="56" height="72" viewBox="0 0 56 72" fill="none" xmlns="http://www.w3.org/2000/svg">
<path d="M24.6689 0.0904465C20.4715 0.53006 15.3609 2.36993 11.7255 4.7471C9.84629 5.98454 6.79045 8.75248 5.49084 10.397C2.83894 13.7673 1.13539 17.4145 0.309966 21.5176C-0.0588424 23.39 -0.111529 27.9978 0.222154 29.7726C1.5042 36.4482 5.03422 43.9216 11.3566 53.3489C15.0096 58.8034 23.299 69.8752 24.4406 70.8033C26.39 72.3989 29.6214 72.3989 31.5709 70.8033C32.8178 69.7775 41.8799 57.5985 45.5153 52.0789C50.8367 43.9542 54.156 36.9855 55.5083 30.9937C55.9298 29.1376 56 28.5189 56 25.9463C56 22.7876 55.7717 21.2734 54.9638 18.6357C51.9431 8.98043 42.9512 1.73492 32.1328 0.220695C30.5171 -0.00725555 26.267 -0.0723724 24.6689 0.0904465ZM32.045 14.4512C35.4346 15.5095 38.2094 17.7239 39.6846 20.5569C40.7032 22.5108 41.0545 23.8948 41.0545 26.0277C41.0545 32.6871 35.2414 38.0764 28.0584 38.0764C25.8982 38.0764 24.2474 37.7182 22.298 36.8553C18.8031 35.2759 16.4146 32.6056 15.3433 29.0399C14.8164 27.2814 14.8164 24.6926 15.3433 22.8853C16.5551 18.6519 20.612 14.9885 25.0201 14.1581C25.547 14.0604 26.1441 13.9464 26.3373 13.9139C26.5305 13.865 27.514 13.8488 28.5326 13.8813C30.0429 13.9302 30.6752 14.0279 32.045 14.4512Z" fill="url(#paint0_linear_1236_1381)"/>
<path d="M48 28C48 39.0457 39.0457 48 28 48C16.9543 48 8 39.0457 8 28C8 16.9543 16.9543 8.00002 28 8.00002C39.0457 8.00002 48 16.9543 48 28Z" fill="white"/>
<path d="M37.7799 14H18.2201C17.666 13.9997 17.1173 14.1085 16.6053 14.3203C16.0933 14.5321 15.6281 14.8427 15.2362 15.2344C14.8443 15.6261 14.5334 16.0912 14.3213 16.6031C14.1092 17.115 14 17.6637 14 18.2178V37.7822C14.0007 38.9011 14.4456 39.9739 15.237 40.7648C16.0283 41.5557 17.1013 42 18.2201 42H37.7799C38.8987 42 39.9717 41.5557 40.763 40.7648C41.5544 39.9739 41.9993 38.9011 42 37.7822V18.2178C42 17.6637 41.8908 17.115 41.6787 16.6031C41.4666 16.0912 41.1557 15.6261 40.7638 15.2344C40.3719 14.8427 39.9067 14.5321 39.3947 14.3203C38.8827 14.1085 38.334 13.9997 37.7799 14ZM39.9086 37.7556C39.9079 38.3261 39.6808 38.873 39.2772 39.2761C38.8735 39.6793 38.3264 39.9057 37.756 39.9057H18.244C17.6738 39.9057 17.127 39.6792 16.7238 39.276C16.3206 38.8727 16.0941 38.3258 16.0941 37.7556V18.2444C16.0941 17.6739 16.3205 17.1268 16.7236 16.7231C17.1268 16.3194 17.6736 16.0923 18.244 16.0916H37.7533C38.3242 16.0916 38.8717 16.3184 39.2754 16.7222C39.6791 17.1259 39.9059 17.6735 39.9059 18.2444L39.9086 37.7556Z" fill="url(#paint1_linear_1236_1381)"/>
<path d="M29.4024 17.3735H26.699C25.8275 17.3735 25.1211 18.08 25.1211 18.9516V21.6526C25.1211 22.5241 25.8275 23.2306 26.699 23.2306H29.4024C30.2738 23.2306 30.9803 22.5241 30.9803 21.6526V18.9516C30.9803 18.08 30.2738 17.3735 29.4024 17.3735Z" fill="url(#paint2_linear_1236_1381)"/>
<path d="M21.8106 17.374H19.1072C18.2357 17.374 17.5293 18.0805 17.5293 18.9521V21.6531C17.5293 22.5246 18.2357 23.2311 19.1072 23.2311H21.8106C22.682 23.2311 23.3885 22.5246 23.3885 21.6531V18.9521C23.3885 18.0805 22.682 17.374 21.8106 17.374Z" fill="url(#paint3_linear_1236_1381)"/>
<path d="M36.9901 17.3735H34.2947C33.4232 17.3735 32.7168 18.08 32.7168 18.9516V21.6526C32.7168 22.5241 33.4232 23.2306 34.2947 23.2306H36.9901C37.8615 23.2306 38.568 22.5241 38.568 21.6526V18.9516C38.568 18.08 37.8615 17.3735 36.9901 17.3735Z" fill="url(#paint4_linear_1236_1381)"/>
<path d="M21.8106 32.5557H19.1072C18.2357 32.5557 17.5293 33.2622 17.5293 34.1337V36.8294C17.5293 37.7009 18.2357 38.4074 19.1072 38.4074H21.8106C22.682 38.4074 23.3885 37.7009 23.3885 36.8294V34.1337C23.3885 33.2622 22.682 32.5557 21.8106 32.5557Z" fill="url(#paint5_linear_1236_1381)"/>
<path d="M21.8106 24.9663H19.1072C18.2357 24.9663 17.5293 25.6728 17.5293 26.5443V29.2453C17.5293 30.1169 18.2357 30.8234 19.1072 30.8234H21.8106C22.682 30.8234 23.3885 30.1169 23.3885 29.2453V26.5443C23.3885 25.6728 22.682 24.9663 21.8106 24.9663Z" fill="url(#paint6_linear_1236_1381)"/>
<path d="M29.4024 24.9663H26.699C25.8275 24.9663 25.1211 25.6728 25.1211 26.5443V29.2453C25.1211 30.1169 25.8275 30.8234 26.699 30.8234H29.4024C30.2738 30.8234 30.9803 30.1169 30.9803 29.2453V26.5443C30.9803 25.6728 30.2738 24.9663 29.4024 24.9663Z" fill="url(#paint7_linear_1236_1381)"/>
<path d="M36.9901 24.9663H34.2947C33.4232 24.9663 32.7168 25.6728 32.7168 26.5443V29.2453C32.7168 30.1169 33.4232 30.8234 34.2947 30.8234H36.9901C37.8615 30.8234 38.568 30.1169 38.568 29.2453V26.5443C38.568 25.6728 37.8615 24.9663 36.9901 24.9663Z" fill="url(#paint8_linear_1236_1381)"/>
<defs>
<linearGradient id="paint0_linear_1236_1381" x1="28" y1="72" x2="28" y2="0" gradientUnits="userSpaceOnUse">
<stop stop-color="#941B81"/>
<stop offset="0.458333" stop-color="#801F82"/>
<stop offset="1" stop-color="#672383"/>
</linearGradient>
<linearGradient id="paint1_linear_1236_1381" x1="19.2099" y1="43.2268" x2="36.7926" y2="12.7747" gradientUnits="userSpaceOnUse">
<stop stop-color="#662483"/>
<stop offset="1" stop-color="#951B81"/>
</linearGradient>
<linearGradient id="paint2_linear_1236_1381" x1="25.1211" y1="20.3007" x2="30.9803" y2="20.3007" gradientUnits="userSpaceOnUse">
<stop stop-color="#95C11F"/>
<stop offset="1" stop-color="#3AAA35"/>
</linearGradient>
<linearGradient id="paint3_linear_1236_1381" x1="17.5293" y1="20.3012" x2="23.3885" y2="20.3012" gradientUnits="userSpaceOnUse">
<stop stop-color="#E6007E"/>
<stop offset="1" stop-color="#D60B52"/>
</linearGradient>
<linearGradient id="paint4_linear_1236_1381" x1="32.7168" y1="20.3007" x2="38.568" y2="20.3007" gradientUnits="userSpaceOnUse">
<stop stop-color="#F39200"/>
<stop offset="1" stop-color="#EA5B0C"/>
</linearGradient>
<linearGradient id="paint5_linear_1236_1381" x1="17.5293" y1="35.4829" x2="23.3885" y2="35.4829" gradientUnits="userSpaceOnUse">
<stop stop-color="#951B81"/>
<stop offset="1" stop-color="#80166F"/>
</linearGradient>
<linearGradient id="paint6_linear_1236_1381" x1="17.5293" y1="27.8935" x2="23.3885" y2="27.8935" gradientUnits="userSpaceOnUse">
<stop stop-color="#009FE3"/>
<stop offset="1" stop-color="#1D71B8"/>
</linearGradient>
<linearGradient id="paint7_linear_1236_1381" x1="25.1211" y1="27.8935" x2="30.9803" y2="27.8935" gradientUnits="userSpaceOnUse">
<stop stop-color="#5B3173"/>
<stop offset="1" stop-color="#4F2963"/>
</linearGradient>
<linearGradient id="paint8_linear_1236_1381" x1="32.7168" y1="27.8935" x2="38.568" y2="27.8935" gradientUnits="userSpaceOnUse">
<stop stop-color="#E30613"/>
<stop offset="1" stop-color="#BE1622"/>
</linearGradient>
</defs>
</svg>
