<svg width="60" height="48" viewBox="0 0 60 48" fill="none" xmlns="http://www.w3.org/2000/svg">
<g clip-path="url(#clip0_1216_2201)">
<path d="M11.0812 34.1465H9.79096C9.71928 34.1469 9.64884 34.1648 9.58593 34.1985C9.52303 34.2322 9.46963 34.2808 9.43054 34.3397L6.05951 38.9718C5.89898 39.2066 5.72937 39.1977 5.61428 38.9718L3.41237 34.4051C3.38597 34.3312 3.33682 34.2672 3.27169 34.2219C3.20657 34.1766 3.12871 34.1523 3.04891 34.1524H0.819736C0.601665 34.1524 0.410851 34.1524 0.383592 34.5211L0.356334 34.8184C0.356334 34.9968 0.477485 35.1008 0.659212 35.1157C0.913629 35.1157 0.998432 35.2495 0.931799 35.6806L-0.00712205 44.4749C-0.0144235 44.5155 -0.0130125 44.5572 -0.00299039 44.5973C0.00703166 44.6374 0.0254475 44.675 0.0510909 44.7078C0.0767343 44.7405 0.109043 44.7676 0.145953 44.7874C0.182862 44.8072 0.223568 44.8192 0.265475 44.8227H2.03125C2.10612 44.8232 2.17851 44.7964 2.23445 44.7475C2.29038 44.6987 2.32589 44.6312 2.33412 44.5581L2.89445 39.4534C2.91868 39.2393 3.164 39.1561 3.26698 39.3999L4.45123 42.04C4.53234 42.2208 4.66497 42.3749 4.83315 42.4835C5.00133 42.5922 5.19791 42.6508 5.39924 42.6524C5.64687 42.6864 5.89916 42.6444 6.12149 42.5321C6.34382 42.4197 6.5253 42.2427 6.64104 42.0251L8.4371 39.3969C8.56734 39.1561 8.84599 39.2453 8.81267 39.4772L8.27052 44.5046C8.26717 44.5456 8.27251 44.5868 8.28622 44.6257C8.29994 44.6646 8.32172 44.7002 8.35019 44.7304C8.37865 44.7606 8.41319 44.7846 8.45161 44.801C8.49003 44.8174 8.5315 44.8258 8.5734 44.8257H10.2513C10.3383 44.8315 10.4241 44.8036 10.4903 44.748C10.5566 44.6924 10.598 44.6136 10.6057 44.5284L11.6446 34.5776C11.6506 34.1762 11.5537 34.1465 11.0812 34.1465Z" fill="url(#paint0_linear_1216_2201)"/>
<path d="M19.2958 37.4639C19.3379 37.4637 19.3797 37.4722 19.4183 37.4888C19.457 37.5054 19.4917 37.5297 19.5202 37.5602C19.5487 37.5907 19.5704 37.6267 19.5839 37.6659C19.5974 37.7051 19.6024 37.7467 19.5986 37.7879L18.7415 45.9282C18.6839 46.499 18.3296 46.9866 17.6844 47.3909C17.0128 47.8043 16.2327 48.0161 15.4401 48.0004H13.4169C13.3745 48.0006 13.3324 47.992 13.2936 47.9753C13.2547 47.9585 13.2198 47.9339 13.1913 47.9031C13.1627 47.8722 13.1411 47.8358 13.1278 47.7963C13.1145 47.7567 13.1098 47.7148 13.114 47.6733L13.1534 47.2928C13.1616 47.2197 13.1971 47.1523 13.2531 47.1034C13.309 47.0545 13.3814 47.0278 13.4563 47.0282H16.0065C16.0814 47.0286 16.1538 47.0018 16.2097 46.953C16.2656 46.9041 16.3012 46.8366 16.3094 46.7636L16.476 45.1522C16.4802 45.1107 16.4755 45.0688 16.4622 45.0293C16.4489 44.9897 16.4273 44.9533 16.3987 44.9225C16.3702 44.8916 16.3353 44.867 16.2964 44.8503C16.2576 44.8335 16.2155 44.825 16.1731 44.8252H15.7369C14.958 44.8594 14.186 44.6682 13.5169 44.2751C13.225 44.1065 12.9902 43.8573 12.8416 43.5586C12.6929 43.26 12.6371 42.925 12.6809 42.5954L13.0837 38.7304C13.0871 38.6925 13.0824 38.6544 13.0699 38.6184C13.0574 38.5824 13.0374 38.5494 13.0112 38.5214C12.985 38.4934 12.9531 38.4711 12.9176 38.4559C12.8822 38.4407 12.8438 38.4329 12.8051 38.4331C12.7664 38.4332 12.728 38.4255 12.6926 38.4102C12.6571 38.395 12.6252 38.3727 12.599 38.3448C12.5728 38.3168 12.5528 38.2838 12.5403 38.2478C12.5278 38.2118 12.5231 38.1737 12.5264 38.1358L12.5689 37.7314C12.5778 37.6589 12.6136 37.5922 12.6695 37.5439C12.7253 37.4957 12.7973 37.4693 12.8717 37.4698H15.2372C15.2794 37.4696 15.3211 37.4781 15.3598 37.4947C15.3984 37.5113 15.4331 37.5356 15.4616 37.5661C15.4901 37.5966 15.5118 37.6327 15.5253 37.6719C15.5389 37.7111 15.5439 37.7527 15.5401 37.7939L14.9979 42.961C14.9414 43.5557 15.2261 43.853 15.852 43.853H16.3518C16.4267 43.8534 16.4991 43.8266 16.555 43.7778C16.6109 43.7289 16.6464 43.6614 16.6547 43.5884L17.2604 37.7433C17.2687 37.6703 17.3042 37.6028 17.3601 37.5539C17.416 37.5051 17.4884 37.4783 17.5633 37.4787L19.2958 37.4639Z" fill="url(#paint1_linear_1216_2201)"/>
<path d="M23.2344 39.0624L23.1405 39.9245C23.1316 39.9971 23.0957 40.0638 23.0399 40.1121C22.984 40.1603 22.912 40.1867 22.8376 40.1862H20.351C20.3088 40.1863 20.2671 40.1779 20.2284 40.1613C20.1898 40.1447 20.1551 40.1204 20.1266 40.0898C20.0981 40.0593 20.0763 40.0233 20.0628 39.9841C20.0493 39.9449 20.0443 39.9033 20.0481 39.8621L20.139 38.9999C20.1479 38.9274 20.1837 38.8607 20.2396 38.8124C20.2954 38.7641 20.3674 38.7378 20.4418 38.7383H22.9315C22.9737 38.7381 23.0154 38.7466 23.0541 38.7632C23.0927 38.7798 23.1274 38.8041 23.1559 38.8346C23.1844 38.8651 23.2061 38.9011 23.2196 38.9403C23.2331 38.9796 23.2382 39.0211 23.2344 39.0624Z" fill="url(#paint2_linear_1216_2201)"/>
<path d="M31.4868 34.1426C31.5292 34.1424 31.5713 34.1509 31.6101 34.1677C31.649 34.1845 31.6838 34.2091 31.7124 34.2399C31.741 34.2707 31.7626 34.3071 31.7759 34.3467C31.7892 34.3863 31.7939 34.4281 31.7896 34.4696L30.8628 43.3174C30.849 43.3723 30.8467 43.4294 30.856 43.4853C30.8652 43.5411 30.8859 43.5945 30.9167 43.6423C30.9476 43.6901 30.988 43.7312 31.0354 43.7633C31.0829 43.7953 31.1365 43.8176 31.193 43.8288C31.2629 43.8488 31.3231 43.8929 31.3626 43.953C31.4021 44.013 31.4182 44.0851 31.408 44.1558L31.3626 44.5631C31.3537 44.6357 31.3179 44.7024 31.262 44.7507C31.2061 44.7989 31.1341 44.8253 31.0597 44.8248H30.3328C29.8477 44.8495 29.368 44.7145 28.9699 44.4412C28.802 44.3089 28.6731 44.135 28.5964 43.9374C28.5197 43.7399 28.4981 43.5259 28.5337 43.3174L28.8366 40.2938C28.8404 40.2526 28.8354 40.211 28.8219 40.1718C28.8084 40.1326 28.7866 40.0966 28.7581 40.0661C28.7296 40.0356 28.6949 40.0112 28.6563 39.9947C28.6176 39.9781 28.5759 39.9696 28.5337 39.9698H26.9194C26.8445 39.9693 26.7721 39.9961 26.7162 40.045C26.6603 40.0938 26.6247 40.1613 26.6165 40.2344L26.1652 44.5602C26.157 44.6332 26.1215 44.7007 26.0655 44.7496C26.0096 44.7984 25.9372 44.8252 25.8623 44.8248H24.142C24.0998 44.8249 24.0581 44.8165 24.0194 44.7999C23.9808 44.7833 23.9461 44.759 23.9176 44.7285C23.8891 44.6979 23.8674 44.6619 23.8539 44.6227C23.8403 44.5835 23.8353 44.5419 23.8391 44.5007L24.8023 35.4359C24.8056 35.3949 24.8003 35.3536 24.7866 35.3148C24.7729 35.2759 24.7511 35.2403 24.7226 35.2101C24.6941 35.1799 24.6596 35.1559 24.6212 35.1394C24.5828 35.123 24.5413 35.1146 24.4994 35.1148C24.4575 35.1149 24.416 35.1065 24.3776 35.0901C24.3392 35.0737 24.3046 35.0496 24.2762 35.0195C24.2477 34.9893 24.2259 34.9536 24.2122 34.9148C24.1985 34.8759 24.1932 34.8347 24.1965 34.7937L24.2359 34.4072C24.2441 34.3341 24.2796 34.2667 24.3356 34.2178C24.3915 34.1689 24.4639 34.1421 24.5388 34.1426H26.9224C26.9649 34.1424 27.0069 34.1509 27.0458 34.1677C27.0846 34.1845 27.1195 34.2091 27.148 34.2399C27.1766 34.2707 27.1982 34.3071 27.2115 34.3467C27.2248 34.3863 27.2295 34.4281 27.2253 34.4696L26.7861 38.6735C26.7823 38.7148 26.7873 38.7563 26.8009 38.7955C26.8144 38.8347 26.8361 38.8708 26.8646 38.9013C26.8931 38.9318 26.9278 38.9561 26.9664 38.9727C27.0051 38.9893 27.0468 38.9977 27.089 38.9976H28.6852C28.76 38.998 28.8324 38.9712 28.8884 38.9224C28.9443 38.8735 28.9798 38.806 28.988 38.733L29.4393 34.4072C29.4476 34.3341 29.4831 34.2667 29.539 34.2178C29.5949 34.1689 29.6673 34.1421 29.7422 34.1426H31.4868Z" fill="url(#paint3_linear_1216_2201)"/>
<path d="M38.8792 39.5269L38.5309 42.7675C38.4733 43.3384 38.122 43.823 37.4829 44.2243C36.8122 44.6308 36.0357 44.8374 35.2477 44.8189H34.8963C34.1791 44.8418 33.4703 44.6612 32.855 44.2987C32.5763 44.1534 32.3489 43.929 32.2024 43.6547C32.056 43.3804 31.9973 43.0691 32.0342 42.7616L32.3825 39.5269C32.4521 38.8907 32.8368 38.3763 33.5364 37.9898C34.1838 37.6354 34.9154 37.4559 35.6566 37.4695H36.0231C36.7354 37.4477 37.4391 37.6284 38.0493 37.9898C38.3282 38.1353 38.5564 38.3595 38.7043 38.6335C38.8522 38.9075 38.9131 39.2186 38.8792 39.5269ZM36.541 39.5269C36.5662 39.3887 36.5628 39.247 36.5311 39.1101C36.4994 38.9732 36.4399 38.844 36.3562 38.7301C36.2813 38.6403 36.1864 38.5686 36.0787 38.5207C35.971 38.4727 35.8535 38.4498 35.7353 38.4536C35.4882 38.4538 35.2506 38.5475 35.072 38.7153C34.8543 38.9337 34.7242 39.2219 34.7055 39.5269L34.3724 42.7735C34.3488 42.9099 34.3538 43.0496 34.3871 43.1841C34.4205 43.3185 34.4814 43.4449 34.5662 43.5554C34.6397 43.6445 34.7318 43.7172 34.8363 43.7685C34.9407 43.8198 35.0552 43.8485 35.172 43.8527C35.2968 43.8558 35.4209 43.8337 35.5366 43.7877C35.6522 43.7416 35.757 43.6727 35.8444 43.5851C36.0612 43.3634 36.1883 43.0717 36.2017 42.7646L36.541 39.5269Z" fill="url(#paint4_linear_1216_2201)"/>
<path d="M42.5981 34.1426C42.6406 34.1424 42.6826 34.1509 42.7215 34.1677C42.7603 34.1845 42.7952 34.2091 42.8237 34.2399C42.8523 34.2707 42.8739 34.3071 42.8872 34.3467C42.9005 34.3863 42.9052 34.4281 42.901 34.4696L42.0136 43.0142C41.9651 43.4453 42.1196 43.7129 42.477 43.8139C42.5436 43.8308 42.6024 43.8694 42.6437 43.9234C42.685 43.9775 42.7063 44.0437 42.7041 44.1112L42.6405 44.8129H42.2559C41.5635 44.8545 40.8748 44.6853 40.2841 44.3283C40.0654 44.1865 39.8922 43.9865 39.785 43.7517C39.6777 43.5169 39.6407 43.257 39.6784 43.0023L40.484 35.4061C40.4874 35.3683 40.4827 35.3301 40.4702 35.2941C40.4577 35.2582 40.4377 35.2251 40.4115 35.1972C40.3853 35.1692 40.3534 35.1469 40.3179 35.1317C40.2824 35.1165 40.2441 35.1087 40.2054 35.1088C40.1667 35.109 40.1283 35.1012 40.0928 35.086C40.0573 35.0708 40.0255 35.0485 39.9993 35.0205C39.973 34.9925 39.9531 34.9595 39.9406 34.9235C39.9281 34.8875 39.9234 34.8494 39.9267 34.8115L39.9691 34.4072C39.9774 34.3341 40.0129 34.2667 40.0688 34.2178C40.1247 34.1689 40.1971 34.1421 40.272 34.1426H42.5981Z" fill="url(#paint5_linear_1216_2201)"/>
<path d="M47.9595 44.3196C47.3139 44.6771 46.58 44.852 45.8393 44.8251L43.3981 44.8399C43.3557 44.8401 43.3137 44.8316 43.2748 44.8148C43.2359 44.7981 43.2011 44.7735 43.1725 44.7426C43.144 44.7118 43.1223 44.6754 43.109 44.6358C43.0957 44.5962 43.091 44.5544 43.0953 44.5129L43.1377 44.1204C43.1459 44.0474 43.1814 43.9799 43.2374 43.9311C43.2933 43.8822 43.3657 43.8554 43.4406 43.8558H45.0397C45.7606 43.8558 46.124 43.5585 46.124 42.9996C46.1229 42.8408 46.0881 42.6841 46.0219 42.5392C45.9556 42.3944 45.8594 42.2646 45.7394 42.1582L44.3401 40.8412C44.1342 40.6653 43.9674 40.4496 43.8502 40.2077C43.7329 39.9657 43.6677 39.7027 43.6586 39.4349C43.6593 39.123 43.7502 38.8178 43.9207 38.5546C44.0912 38.2915 44.3343 38.0812 44.6218 37.9484C45.2411 37.6131 45.9411 37.4477 46.648 37.4697H48.2351C48.2773 37.4695 48.319 37.478 48.3577 37.4946C48.3963 37.5112 48.431 37.5355 48.4595 37.566C48.488 37.5965 48.5097 37.6326 48.5232 37.6718C48.5368 37.711 48.5418 37.7526 48.538 37.7938L48.4986 38.1773C48.4897 38.2498 48.4539 38.3166 48.398 38.3648C48.3421 38.4131 48.2701 38.4395 48.1957 38.4389H47.0872C46.5057 38.4389 46.2119 38.5846 46.2119 38.876C46.2225 39.0539 46.3042 39.2205 46.439 39.3398L48.1533 41.0939C48.6275 41.5261 48.9093 42.1242 48.9378 42.7588C48.9358 43.0819 48.8435 43.3983 48.671 43.6735C48.4985 43.9487 48.2524 44.1722 47.9595 44.3196Z" fill="url(#paint6_linear_1216_2201)"/>
<path d="M54.2157 37.7887L54.1733 38.1722C54.1643 38.2447 54.1285 38.3115 54.0727 38.3597C54.0168 38.408 53.9448 38.4344 53.8704 38.4338H53.4161C53.3412 38.4334 53.2688 38.4602 53.2129 38.509C53.1569 38.5579 53.1214 38.6254 53.1132 38.6984L52.6498 43.0302C52.6289 43.1104 52.6243 43.1939 52.6362 43.2759C52.6482 43.3579 52.6765 43.4367 52.7195 43.508C52.7626 43.5792 52.8195 43.6414 52.887 43.6911C52.9546 43.7407 53.0314 43.7768 53.1132 43.7972C53.1825 43.8145 53.2434 43.8554 53.2849 43.9125C53.3265 43.9697 53.3461 44.0394 53.3403 44.1094L53.2919 44.5613C53.2837 44.6343 53.2481 44.7018 53.1922 44.7507C53.1363 44.7995 53.0639 44.8263 52.989 44.8259H52.4378C51.8711 44.8586 51.3101 44.7002 50.8477 44.377C50.6422 44.2213 50.4835 44.0138 50.3886 43.7767C50.2936 43.5395 50.266 43.2815 50.3086 43.0302L50.7629 38.7609C50.7671 38.7194 50.7624 38.6775 50.7491 38.6379C50.7358 38.5984 50.7142 38.562 50.6856 38.5311C50.6571 38.5003 50.6222 38.4757 50.5833 38.4589C50.5445 38.4422 50.5024 38.4336 50.46 38.4338H50.2025C50.1604 38.434 50.1186 38.4255 50.08 38.4089C50.0413 38.3923 50.0066 38.368 49.9781 38.3375C49.9496 38.307 49.9279 38.271 49.9144 38.2318C49.9009 38.1926 49.8959 38.151 49.8997 38.1098L49.9421 37.7262C49.951 37.6537 49.9868 37.587 50.0427 37.5387C50.0985 37.4905 50.1705 37.4641 50.2449 37.4646H50.6296C50.7049 37.465 50.7777 37.4378 50.8337 37.3883C50.8897 37.3388 50.9249 37.2706 50.9325 37.197L51.0506 36.0078C51.0581 35.9342 51.0933 35.866 51.1493 35.8166C51.2053 35.7671 51.2781 35.7399 51.3535 35.7402H53.089C53.1314 35.74 53.1734 35.7486 53.2123 35.7653C53.2512 35.7821 53.286 35.8067 53.3146 35.8375C53.3431 35.8684 53.3648 35.9048 53.3781 35.9443C53.3914 35.9839 53.3961 36.0258 53.3918 36.0673L53.2737 37.1257C53.2695 37.1672 53.2742 37.209 53.2875 37.2486C53.3008 37.2882 53.3224 37.3246 53.351 37.3554C53.3795 37.3862 53.4144 37.4108 53.4532 37.4276C53.4921 37.4444 53.5341 37.4529 53.5766 37.4527H53.9188C53.9617 37.4532 54.0039 37.4626 54.0427 37.4802C54.0815 37.4979 54.1161 37.5235 54.1442 37.5552C54.1722 37.587 54.1931 37.6242 54.2054 37.6644C54.2177 37.7047 54.2212 37.747 54.2157 37.7887Z" fill="url(#paint7_linear_1216_2201)"/>
<path d="M54.597 44.4705C54.597 44.5213 54.5867 44.5715 54.5666 44.6182C54.5466 44.665 54.5172 44.7074 54.4802 44.7428C54.4433 44.7783 54.3995 44.8061 54.3514 44.8247C54.3033 44.8433 54.2519 44.8523 54.2002 44.8511C54.1495 44.8521 54.0992 44.8428 54.0523 44.8239C54.0054 44.805 53.9629 44.7768 53.9276 44.7411C53.891 44.7058 53.862 44.6637 53.8422 44.6172C53.8225 44.5707 53.8124 44.5209 53.8125 44.4705C53.8119 44.4199 53.8215 44.3697 53.8407 44.3228C53.86 44.2758 53.8885 44.2331 53.9246 44.197C53.9602 44.1607 54.0031 44.1319 54.0505 44.1125C54.0979 44.093 54.1488 44.0833 54.2002 44.084C54.2522 44.0836 54.3037 44.0933 54.3518 44.1126C54.3999 44.1318 54.4437 44.1602 54.4806 44.1962C54.5175 44.2321 54.5468 44.2748 54.5667 44.3219C54.5867 44.369 54.597 44.4195 54.597 44.4705Z" fill="#454444"/>
<path d="M57.2418 41.6564L57.1842 42.251C57.1767 42.3246 57.1415 42.3928 57.0855 42.4423C57.0295 42.4918 56.9567 42.519 56.8814 42.5186H56.6905L56.7208 42.1053C56.5189 42.1829 56.3458 42.3187 56.2241 42.4948C56.0928 42.668 56.014 42.8742 55.9969 43.0894L55.8667 44.5551C55.8599 44.6293 55.825 44.6982 55.7689 44.7483C55.7128 44.7984 55.6397 44.826 55.5638 44.8257H55.3397C55.2978 44.8258 55.2563 44.8174 55.2179 44.801C55.1795 44.7846 55.145 44.7606 55.1165 44.7304C55.088 44.7002 55.0663 44.6646 55.0525 44.6257C55.0388 44.5868 55.0335 44.5456 55.0368 44.5046L55.2579 42.0726H55.0156L55.0308 41.921C55.0383 41.8474 55.0735 41.7792 55.1295 41.7298C55.1855 41.6803 55.2583 41.6531 55.3337 41.6534H56.1484L56.1272 41.921C56.3685 41.7358 56.6692 41.641 56.9753 41.6534L57.2418 41.6564Z" fill="#454444"/>
<path d="M60.0036 44.4094V44.561C59.996 44.6346 59.9608 44.7028 59.9048 44.7523C59.8488 44.8017 59.7761 44.829 59.7007 44.8286H58.4559C58.1841 44.8436 57.9164 44.7588 57.7047 44.5907C57.6036 44.5006 57.5272 44.3869 57.4827 44.2601C57.4382 44.1333 57.4271 43.9975 57.4503 43.8653L57.6108 42.0815H57.3867V41.9299C57.3943 41.8563 57.4294 41.7881 57.4855 41.7386C57.5415 41.6891 57.6143 41.6619 57.6896 41.6623H58.156C58.1979 41.6621 58.2394 41.6706 58.2778 41.687C58.3162 41.7034 58.3508 41.7274 58.3792 41.7576C58.4077 41.7878 58.4295 41.8234 58.4432 41.8623C58.4569 41.9011 58.4622 41.9424 58.4589 41.9834L58.2893 43.9783C58.28 44.0817 58.3033 44.1855 58.3559 44.2756C58.3841 44.3154 58.4216 44.3479 58.4655 44.3701C58.5093 44.3924 58.558 44.4038 58.6073 44.4034H58.6225C58.6978 44.4038 58.7706 44.3766 58.8266 44.3271C58.8826 44.2776 58.9178 44.2095 58.9253 44.1359L59.1252 41.9209C59.1321 41.8468 59.1669 41.7779 59.223 41.7278C59.2791 41.6777 59.3523 41.6501 59.4281 41.6504H59.6765C59.7184 41.6503 59.7598 41.6587 59.7983 41.6751C59.8367 41.6915 59.8712 41.7155 59.8997 41.7457C59.9281 41.7759 59.9499 41.8115 59.9636 41.8504C59.9773 41.8893 59.9827 41.9305 59.9793 41.9715L59.7673 44.4034L60.0036 44.4094Z" fill="#454444"/>
<path d="M41.3837 9.6872e-07H18.8147C18.1753 -0.000402417 17.5422 0.125179 16.9515 0.369574C16.3607 0.613969 15.8239 0.97239 15.3717 1.42435C14.9195 1.8763 14.5608 2.41294 14.316 3.0036C14.0713 3.59426 13.9453 4.22736 13.9453 4.86672V27.441C13.9461 28.732 14.4595 29.9698 15.3726 30.8824C16.2857 31.795 17.5238 32.3077 18.8147 32.3077H41.3837C42.6746 32.3077 43.9126 31.795 44.8257 30.8824C45.7388 29.9698 46.2522 28.732 46.253 27.441V4.86672C46.253 4.22736 46.127 3.59426 45.8823 3.0036C45.6375 2.41294 45.2788 1.8763 44.8266 1.42435C44.3744 0.97239 43.8376 0.613969 43.2469 0.369574C42.6561 0.125179 42.023 -0.000402417 41.3837 9.6872e-07ZM43.8398 27.4103C43.839 28.0685 43.577 28.6996 43.1113 29.1648C42.6455 29.6299 42.0142 29.8912 41.356 29.8912H18.8423C18.1844 29.8912 17.5534 29.6298 17.0882 29.1646C16.6229 28.6993 16.3616 28.0683 16.3616 27.4103V4.89743C16.3616 4.23916 16.6228 3.6078 17.088 3.14204C17.5531 2.67629 18.1841 2.41422 18.8423 2.41341H41.353C42.0117 2.41341 42.6435 2.67512 43.1093 3.14096C43.5751 3.60681 43.8368 4.23863 43.8368 4.89743L43.8398 27.4103Z" fill="url(#paint8_linear_1216_2201)"/>
<path d="M31.4768 3.76953H28.3996C27.4076 3.76953 26.6035 4.55886 26.6035 5.53255V8.55021C26.6035 9.5239 27.4076 10.3132 28.3996 10.3132H31.4768C32.4688 10.3132 33.2729 9.5239 33.2729 8.55021V5.53255C33.2729 4.55886 32.4688 3.76953 31.4768 3.76953Z" fill="url(#paint9_linear_1216_2201)"/>
<path d="M22.8342 3.76953H19.757C18.7651 3.76953 17.9609 4.55886 17.9609 5.53255V8.55021C17.9609 9.5239 18.7651 10.3132 19.757 10.3132H22.8342C23.8262 10.3132 24.6303 9.5239 24.6303 8.55021V5.53255C24.6303 4.55886 23.8262 3.76953 22.8342 3.76953Z" fill="url(#paint10_linear_1216_2201)"/>
<path d="M40.1142 3.76953H37.0461C36.0541 3.76953 35.25 4.55886 35.25 5.53255V8.55021C35.25 9.5239 36.0541 10.3132 37.0461 10.3132H40.1142C41.1061 10.3132 41.9103 9.5239 41.9103 8.55021V5.53255C41.9103 4.55886 41.1061 3.76953 40.1142 3.76953Z" fill="url(#paint11_linear_1216_2201)"/>
<path d="M22.8342 20.7314H19.757C18.7651 20.7314 17.9609 21.5208 17.9609 22.4945V25.5062C17.9609 26.4799 18.7651 27.2692 19.757 27.2692H22.8342C23.8262 27.2692 24.6303 26.4799 24.6303 25.5062V22.4945C24.6303 21.5208 23.8262 20.7314 22.8342 20.7314Z" fill="url(#paint12_linear_1216_2201)"/>
<path d="M22.8342 12.252H19.757C18.7651 12.252 17.9609 13.0413 17.9609 14.015V17.0326C17.9609 18.0063 18.7651 18.7957 19.757 18.7957H22.8342C23.8262 18.7957 24.6303 18.0063 24.6303 17.0326V14.015C24.6303 13.0413 23.8262 12.252 22.8342 12.252Z" fill="url(#paint13_linear_1216_2201)"/>
<path d="M31.4768 12.252H28.3996C27.4076 12.252 26.6035 13.0413 26.6035 14.015V17.0326C26.6035 18.0063 27.4076 18.7957 28.3996 18.7957H31.4768C32.4688 18.7957 33.2729 18.0063 33.2729 17.0326V14.015C33.2729 13.0413 32.4688 12.252 31.4768 12.252Z" fill="url(#paint14_linear_1216_2201)"/>
<path d="M40.1142 12.252H37.0461C36.0541 12.252 35.25 13.0413 35.25 14.015V17.0326C35.25 18.0063 36.0541 18.7957 37.0461 18.7957H40.1142C41.1061 18.7957 41.9103 18.0063 41.9103 17.0326V14.015C41.9103 13.0413 41.1061 12.252 40.1142 12.252Z" fill="url(#paint15_linear_1216_2201)"/>
</g>
<defs>
<linearGradient id="paint0_linear_1216_2201" x1="1.81923" y1="45.7384" x2="9.12627" y2="32.8427" gradientUnits="userSpaceOnUse">
<stop stop-color="#662483"/>
<stop offset="1" stop-color="#831F82"/>
</linearGradient>
<linearGradient id="paint1_linear_1216_2201" x1="12.3992" y1="47.4712" x2="18.3868" y2="36.9038" gradientUnits="userSpaceOnUse">
<stop stop-color="#662483"/>
<stop offset="1" stop-color="#831F82"/>
</linearGradient>
<linearGradient id="paint2_linear_1216_2201" x1="20.0481" y1="39.4607" x2="23.2313" y2="39.4607" gradientUnits="userSpaceOnUse">
<stop stop-color="#662483"/>
<stop offset="1" stop-color="#831F82"/>
</linearGradient>
<linearGradient id="paint3_linear_1216_2201" x1="23.8543" y1="39.4852" x2="31.7896" y2="39.4852" gradientUnits="userSpaceOnUse">
<stop stop-color="#5B3173"/>
<stop offset="1" stop-color="#4F2963"/>
</linearGradient>
<linearGradient id="paint4_linear_1216_2201" x1="32.022" y1="41.1442" x2="38.8913" y2="41.1442" gradientUnits="userSpaceOnUse">
<stop stop-color="#5B3173"/>
<stop offset="1" stop-color="#4F2963"/>
</linearGradient>
<linearGradient id="paint5_linear_1216_2201" x1="39.6572" y1="39.4852" x2="42.901" y2="39.4852" gradientUnits="userSpaceOnUse">
<stop stop-color="#5B3173"/>
<stop offset="1" stop-color="#4F2963"/>
</linearGradient>
<linearGradient id="paint6_linear_1216_2201" x1="43.1013" y1="41.1504" x2="48.9378" y2="41.1504" gradientUnits="userSpaceOnUse">
<stop stop-color="#5B3173"/>
<stop offset="1" stop-color="#4F2963"/>
</linearGradient>
<linearGradient id="paint7_linear_1216_2201" x1="49.9178" y1="40.289" x2="54.2157" y2="40.289" gradientUnits="userSpaceOnUse">
<stop stop-color="#5B3173"/>
<stop offset="1" stop-color="#4F2963"/>
</linearGradient>
<linearGradient id="paint8_linear_1216_2201" x1="19.9568" y1="33.7232" x2="40.2444" y2="-1.41383" gradientUnits="userSpaceOnUse">
<stop stop-color="#662483"/>
<stop offset="1" stop-color="#951B81"/>
</linearGradient>
<linearGradient id="paint9_linear_1216_2201" x1="26.6035" y1="7.03989" x2="33.2729" y2="7.03989" gradientUnits="userSpaceOnUse">
<stop stop-color="#95C11F"/>
<stop offset="1" stop-color="#3AAA35"/>
</linearGradient>
<linearGradient id="paint10_linear_1216_2201" x1="17.9609" y1="7.03989" x2="24.6303" y2="7.03989" gradientUnits="userSpaceOnUse">
<stop stop-color="#E6007E"/>
<stop offset="1" stop-color="#D60B52"/>
</linearGradient>
<linearGradient id="paint11_linear_1216_2201" x1="35.25" y1="7.03989" x2="41.9103" y2="7.03989" gradientUnits="userSpaceOnUse">
<stop stop-color="#F39200"/>
<stop offset="1" stop-color="#EA5B0C"/>
</linearGradient>
<linearGradient id="paint12_linear_1216_2201" x1="17.9609" y1="24.0018" x2="24.6303" y2="24.0018" gradientUnits="userSpaceOnUse">
<stop stop-color="#951B81"/>
<stop offset="1" stop-color="#80166F"/>
</linearGradient>
<linearGradient id="paint13_linear_1216_2201" x1="17.9609" y1="15.5223" x2="24.6303" y2="15.5223" gradientUnits="userSpaceOnUse">
<stop stop-color="#009FE3"/>
<stop offset="1" stop-color="#1D71B8"/>
</linearGradient>
<linearGradient id="paint14_linear_1216_2201" x1="26.6035" y1="15.5223" x2="33.2729" y2="15.5223" gradientUnits="userSpaceOnUse">
<stop stop-color="#5B3173"/>
<stop offset="1" stop-color="#4F2963"/>
</linearGradient>
<linearGradient id="paint15_linear_1216_2201" x1="35.25" y1="15.5223" x2="41.9103" y2="15.5223" gradientUnits="userSpaceOnUse">
<stop stop-color="#E30613"/>
<stop offset="1" stop-color="#BE1622"/>
</linearGradient>
<clipPath id="clip0_1216_2201">
<rect width="60" height="48" fill="white"/>
</clipPath>
</defs>
</svg>
