<svg width="28" height="28" viewBox="0 0 28 28" fill="none" xmlns="http://www.w3.org/2000/svg">
<path d="M12.6683 0.0351162C8.28783 0.489874 4.44943 2.87325 2.11683 6.58802C-0.549792 10.8288 -0.708585 16.3242 1.70616 20.7129C2.80128 22.7073 4.37278 24.4167 6.31114 25.7153C7.61433 26.5864 9.5965 27.4192 11.1078 27.7206C12.2795 27.9562 12.7231 28 14.0098 28C15.3021 28 15.8332 27.9452 16.9229 27.7206C21.7414 26.7124 25.766 23.1072 27.3155 18.3953C27.8193 16.8721 28 15.7051 28 14.0011C28 12.3519 27.8248 11.1904 27.3648 9.75489C26.6859 7.61807 25.5579 5.76616 23.959 4.14438C21.7742 1.93085 19.0693 0.56658 15.9537 0.106342C15.2802 0.00772095 13.3363 -0.0361099 12.6683 0.0351162ZM10.1003 5.2621C10.2536 5.3388 10.4397 5.46482 10.5164 5.547C10.7628 5.80452 12.3617 8.52759 12.4548 8.84537C12.5533 9.17959 12.5369 9.52477 12.3945 9.8809C12.3398 10.0179 11.9455 10.5165 11.4308 11.1137C10.9544 11.6616 10.5602 12.1492 10.5602 12.193C10.5602 12.3465 11.0913 13.3656 11.387 13.7929C12.4657 15.3325 14.092 16.653 15.7292 17.3104C15.9975 17.42 16.222 17.5077 16.2329 17.5077C16.2439 17.5077 16.6436 17.1516 17.1255 16.7242C17.6073 16.2913 18.0946 15.8914 18.2096 15.8311C18.3301 15.7763 18.582 15.7215 18.8119 15.7106C19.1405 15.6941 19.25 15.7106 19.4964 15.8202C20.1206 16.1051 22.2068 17.3104 22.4094 17.5022C22.5244 17.6118 22.6777 17.82 22.7489 17.9734C22.8694 18.2254 22.8803 18.3186 22.8803 19.0802C22.8803 19.8144 22.8639 19.9623 22.7434 20.3458C22.5846 20.8499 22.2013 21.4361 21.8235 21.743C21.2103 22.2416 20.3232 22.6634 19.573 22.8059C18.9707 22.921 17.5745 22.8771 16.901 22.7182C14.4315 22.1484 11.7813 20.5157 9.48699 18.1597C8.00857 16.631 6.98464 15.212 6.17425 13.5354C5.46242 12.0616 5.19959 11.0918 5.15579 9.75489C5.12293 8.74675 5.19412 8.24268 5.45694 7.57972C5.80191 6.71403 6.31114 6.02916 6.9025 5.64015C7.52125 5.22374 7.90454 5.1306 8.95038 5.12512C9.77719 5.12512 9.8429 5.1306 10.1003 5.2621Z" fill="#B24FA3"/>
</svg>
