<svg width="144" height="41" viewBox="0 0 144 41" fill="none" xmlns="http://www.w3.org/2000/svg">
<g clip-path="url(#clip0_1236_912)">
<rect x="0.220703" y="11.2012" width="141.093" height="29.235" rx="5" transform="rotate(-4.55341 0.220703 11.2012)" fill="url(#paint0_linear_1236_912)"/>
<path d="M20.1187 34.3119C25.6241 33.8735 29.7317 29.055 29.2933 23.5496C28.8548 18.0442 24.0364 13.9366 18.5309 14.3751C13.0255 14.8135 8.91793 19.632 9.35638 25.1374C9.79483 30.6428 14.6133 34.7504 20.1187 34.3119Z" fill="#FC3F1D"/>
<path d="M23.4302 30.314L21.242 30.4883L20.38 19.6653L19.4052 19.7429C17.6183 19.8852 16.7535 20.8532 16.8597 22.1869C16.9802 23.7 17.6816 24.3496 19.0883 25.1367L20.248 25.7908L17.4627 30.7874L15.1098 30.9748L17.6193 26.5121C15.8891 25.4734 14.877 24.4055 14.7237 22.4798C14.532 20.0733 16.0794 18.3026 19.2555 18.0497L22.4186 17.7978L23.4152 30.3115L23.43 30.3103L23.4302 30.314Z" fill="white"/>
<path d="M44.3567 14.3612C44.1694 14.4514 44.0349 14.5734 43.9556 14.7205C43.9117 14.7993 43.5447 15.9023 43.1408 17.172C42.4104 19.4629 42.4057 19.4829 42.3104 19.5069C42.2579 19.5176 41.2002 19.7066 39.9564 19.9235C37.5526 20.3441 37.5679 20.3396 37.3624 20.5557C37.1624 20.7615 37.0763 21.1776 37.1742 21.4612C37.1988 21.5345 37.2713 21.6564 37.3336 21.73C37.3931 21.8071 38.2509 22.4951 39.2339 23.2581C40.2166 24.018 41.0628 24.6774 41.1134 24.7224L41.2074 24.8001L40.8778 27.1998C40.664 28.7686 40.5537 29.6679 40.5607 29.795C40.585 30.1401 40.7761 30.413 41.0907 30.5418C41.3179 30.6383 41.5865 30.6234 41.7876 30.5092C41.8627 30.4672 42.6098 29.9232 43.4482 29.3032C44.2865 28.6831 45.116 28.0703 45.2878 27.9421C45.4595 27.8138 45.6229 27.6993 45.647 27.6876C45.6712 27.6758 46.5465 28.1103 47.7506 28.7346C48.8827 29.3221 49.8736 29.8292 49.9543 29.8588C50.1712 29.943 50.4385 29.9119 50.6476 29.7807C50.9378 29.6037 51.0833 29.304 51.0528 28.9594C51.0395 28.8328 50.7883 27.9623 50.3288 26.4472L49.6267 24.1296L49.6898 24.0558C49.7241 24.0138 50.4552 23.2288 51.3136 22.3092C52.1723 21.3929 52.9161 20.5709 52.9627 20.4853C53.0759 20.293 53.111 20.1036 53.0719 19.8873C53.0112 19.5582 52.7756 19.2791 52.4798 19.1881C52.3897 19.1592 51.5878 19.1347 49.9831 19.1119C48.6827 19.0911 47.6113 19.0684 47.6045 19.0623C47.5978 19.0563 47.0925 18.0686 46.4854 16.8663C45.8784 15.6641 45.338 14.63 45.2861 14.5687C45.0729 14.3336 44.6256 14.2317 44.3567 14.3612Z" fill="#E18700"/>
<path d="M64.2942 12.7733C64.1069 12.8635 63.9724 12.9855 63.8931 13.1326C63.8492 13.2114 63.4822 14.3144 63.0783 15.5841C62.3479 17.875 62.3432 17.895 62.2479 17.919C62.1954 17.9297 61.1377 18.1187 59.8939 18.3356C57.4901 18.7562 57.5054 18.7517 57.2999 18.9678C57.0999 19.1736 57.0138 19.5897 57.1117 19.8733C57.1363 19.9466 57.2088 20.0685 57.2711 20.1421C57.3306 20.2192 58.1884 20.9072 59.1714 21.6702C60.1541 22.4301 61.0003 23.0895 61.0509 23.1345L61.1449 23.2122L60.8153 25.6119C60.6015 27.1808 60.4912 28.08 60.4982 28.2071C60.5225 28.5522 60.7136 28.8251 61.0282 28.9539C61.2554 29.0504 61.524 29.0356 61.7251 28.9213C61.8002 28.8793 62.5473 28.3353 63.3857 27.7153C64.224 27.0952 65.0535 26.4824 65.2253 26.3542C65.397 26.2259 65.5604 26.1114 65.5845 26.0997C65.6087 26.0879 66.484 26.5224 67.6881 27.1467C68.8202 27.7343 69.8111 28.2414 69.8918 28.2709C70.1087 28.3551 70.376 28.324 70.5851 28.1928C70.8753 28.0158 71.0208 27.7161 70.9903 27.3715C70.977 27.2449 70.7258 26.3745 70.2663 24.8593L69.5642 22.5417L69.6273 22.4679C69.6616 22.4259 70.3927 21.6409 71.2511 20.7213C72.1098 19.805 72.8536 18.983 72.9002 18.8974C73.0134 18.7051 73.0485 18.5157 73.0094 18.2994C72.9487 17.9704 72.7131 17.6912 72.4173 17.6002C72.3272 17.5713 71.5253 17.5468 69.9206 17.524C68.6202 17.5032 67.5488 17.4805 67.542 17.4744C67.5353 17.4684 67.03 16.4807 66.4229 15.2785C65.8159 14.0762 65.2755 13.0422 65.2236 12.9808C65.0104 12.7457 64.5631 12.6438 64.2942 12.7733Z" fill="#E18700"/>
<path d="M84.2317 11.1864C84.0444 11.2766 83.9099 11.3986 83.8306 11.5457C83.7867 11.6245 83.4197 12.7275 83.0158 13.9972C82.2854 16.2881 82.2807 16.3081 82.1854 16.3321C82.1329 16.3428 81.0752 16.5318 79.8314 16.7487C77.4276 17.1693 77.4429 17.1648 77.2374 17.3809C77.0374 17.5867 76.9513 18.0028 77.0492 18.2864C77.0738 18.3597 77.1463 18.4816 77.2086 18.5552C77.2681 18.6323 78.1259 19.3203 79.1089 20.0833C80.0916 20.8432 80.9378 21.5026 80.9884 21.5476L81.0824 21.6253L80.7528 24.025C80.539 25.5938 80.4287 26.4931 80.4357 26.6202C80.46 26.9653 80.6511 27.2382 80.9657 27.367C81.1929 27.4635 81.4615 27.4486 81.6626 27.3344C81.7377 27.2924 82.4848 26.7484 83.3232 26.1284C84.1615 25.5083 84.991 24.8955 85.1628 24.7673C85.3345 24.639 85.4979 24.5245 85.522 24.5128C85.5462 24.501 86.4215 24.9355 87.6256 25.5598C88.7577 26.1473 89.7486 26.6544 89.8293 26.684C90.0462 26.7682 90.3135 26.7371 90.5226 26.6059C90.8128 26.4289 90.9583 26.1292 90.9278 25.7846C90.9145 25.658 90.6633 24.7875 90.2038 23.2724L89.5017 20.9548L89.5648 20.881C89.5991 20.839 90.3302 20.054 91.1886 19.1344C92.0473 18.2181 92.7911 17.3961 92.8377 17.3105C92.9509 17.1182 92.986 16.9288 92.9469 16.7125C92.8862 16.3834 92.6506 16.1043 92.3548 16.0133C92.2647 15.9844 91.4628 15.9599 89.8581 15.9371C88.5577 15.9162 87.4863 15.8935 87.4795 15.8875C87.4728 15.8815 86.9675 14.8938 86.3604 13.6915C85.7534 12.4893 85.213 11.4552 85.1611 11.3939C84.9479 11.1588 84.5006 11.0569 84.2317 11.1864Z" fill="#E18700"/>
<path d="M104.167 9.59848C103.98 9.68869 103.845 9.81072 103.766 9.9578C103.722 10.0366 103.355 11.1396 102.951 12.4093C102.221 14.7002 102.216 14.7202 102.121 14.7442C102.068 14.7549 101.011 14.9439 99.767 15.1608C97.3631 15.5814 97.3785 15.5769 97.173 15.793C96.9729 15.9988 96.8868 16.4149 96.9847 16.6985C97.0094 16.7718 97.0818 16.8937 97.1441 16.9673C97.2036 17.0444 98.0614 17.7324 99.0444 18.4954C100.027 19.2553 100.873 19.9147 100.924 19.9597L101.018 20.0374L100.688 22.4371C100.475 24.0059 100.364 24.9052 100.371 25.0323C100.396 25.3774 100.587 25.6503 100.901 25.7791C101.128 25.8756 101.397 25.8608 101.598 25.7465C101.673 25.7045 102.42 25.1605 103.259 24.5405C104.097 23.9204 104.927 23.3076 105.098 23.1794C105.27 23.0511 105.433 22.9366 105.458 22.9249C105.482 22.9131 106.357 23.3476 107.561 23.9719C108.693 24.5594 109.684 25.0665 109.765 25.0961C109.982 25.1803 110.249 25.1492 110.458 25.018C110.748 24.841 110.894 24.5413 110.863 24.1967C110.85 24.0701 110.599 23.1997 110.139 21.6845L109.437 19.3669L109.5 19.2931C109.535 19.2511 110.266 18.4661 111.124 17.5465C111.983 16.6302 112.727 15.8082 112.773 15.7226C112.886 15.5303 112.922 15.3409 112.882 15.1246C112.822 14.7955 112.586 14.5164 112.29 14.4254C112.2 14.3965 111.398 14.372 109.794 14.3492C108.493 14.3284 107.422 14.3057 107.415 14.2996C107.408 14.2936 106.903 13.3059 106.296 12.1037C105.689 10.9014 105.149 9.86735 105.097 9.80601C104.883 9.57091 104.436 9.46903 104.167 9.59848Z" fill="#E18700"/>
<path d="M124.105 8.01059C123.917 8.1008 123.783 8.22283 123.704 8.36991C123.66 8.44871 123.293 9.55174 122.889 10.8214C122.158 13.1123 122.154 13.1323 122.058 13.1563C122.006 13.167 120.948 13.356 119.704 13.5729C117.301 13.9935 117.316 13.989 117.11 14.2051C116.91 14.4109 116.824 14.827 116.922 15.1106C116.947 15.1839 117.019 15.3058 117.082 15.3794C117.141 15.4565 117.999 16.1445 118.982 16.9076C119.965 17.6674 120.811 18.3268 120.861 18.3719L120.955 18.4495L120.626 20.8492C120.412 22.4181 120.302 23.3173 120.309 23.4444C120.333 23.7895 120.524 24.0624 120.839 24.1912C121.066 24.2877 121.335 24.2729 121.536 24.1586C121.611 24.1166 122.358 23.5726 123.196 22.9526C124.035 22.3325 124.864 21.7197 125.036 21.5915C125.208 21.4632 125.371 21.3487 125.395 21.337C125.419 21.3252 126.295 21.7597 127.499 22.384C128.631 22.9716 129.622 23.4787 129.702 23.5082C129.919 23.5925 130.187 23.5613 130.396 23.4301C130.686 23.2531 130.831 22.9534 130.801 22.6089C130.788 22.4822 130.536 21.6118 130.077 20.0966L129.375 17.779L129.438 17.7052C129.472 17.6632 130.203 16.8782 131.062 15.9586C131.92 15.0423 132.664 14.2203 132.711 14.1347C132.824 13.9424 132.859 13.753 132.82 13.5368C132.759 13.2077 132.524 12.9285 132.228 12.8375C132.138 12.8086 131.336 12.7841 129.731 12.7613C128.431 12.7405 127.359 12.7178 127.353 12.7118C127.346 12.7057 126.841 11.718 126.233 10.5158C125.626 9.31351 125.086 8.27946 125.034 8.21812C124.821 7.98302 124.374 7.88114 124.105 8.01059Z" fill="#E18700"/>
</g>
<defs>
<linearGradient id="paint0_linear_1236_912" x1="141.314" y1="25.8187" x2="0.220703" y2="25.8187" gradientUnits="userSpaceOnUse">
<stop stop-color="#FFCC1E"/>
<stop offset="1" stop-color="#FFEE76"/>
</linearGradient>
<clipPath id="clip0_1236_912">
<rect x="0.220703" y="11.2012" width="141.093" height="29.235" rx="5" transform="rotate(-4.55341 0.220703 11.2012)" fill="white"/>
</clipPath>
</defs>
</svg>
