<svg width="28" height="28" viewBox="0 0 28 28" fill="none" xmlns="http://www.w3.org/2000/svg">
<path d="M12.6017 0.0326595C7.0801 0.62339 2.45338 4.33221 0.706184 9.55743C0.206985 11.0495 0 12.3588 0 14.0092C0 17.6937 1.37584 21.098 3.92662 23.735C6.02082 25.8969 8.65075 27.2976 11.6277 27.8214C12.5774 27.9919 14.5255 28.0528 15.4691 27.9492C17.1371 27.7605 18.72 27.2976 20.181 26.579C21.7334 25.8117 22.8779 24.9773 24.0772 23.735C26.2627 21.4756 27.5838 18.6437 27.949 15.4586C28.0525 14.5512 27.9917 12.5781 27.8273 11.6828C27.322 8.82054 26.0984 6.38454 24.1259 4.31394C21.8673 1.93883 18.7747 0.41024 15.5117 0.0570202C14.9638 -0.00387955 13.0887 -0.02215 12.6017 0.0326595ZM16.1692 3.303C20.1506 4.14342 23.2736 6.99354 24.4364 10.8546C24.7225 11.7925 24.8443 12.5354 24.8808 13.6012C24.9965 16.6645 23.8702 19.5329 21.6969 21.7131C16.8449 26.5729 8.74207 25.7629 4.92502 20.0322C4.1397 18.8508 3.61006 17.578 3.30567 16.1346C3.15347 15.4343 3.1413 15.2516 3.1413 13.997C3.1413 12.7425 3.15347 12.5598 3.30567 11.8595C4.31015 7.12752 8.02371 3.73539 12.8452 3.13247C12.9609 3.12029 13.594 3.1142 14.2454 3.12638C15.2316 3.14466 15.5604 3.1751 16.1692 3.303Z" fill="#B24FA3"/>
<path d="M13.5771 7.38389C13.1232 7.55615 12.7892 7.93199 12.6953 8.38091C12.6588 8.56883 12.6431 9.57629 12.6536 11.4712C12.6692 14.2795 12.6692 14.2847 12.7892 14.5457C12.8831 14.7493 13.238 15.1356 14.3546 16.2579C15.9721 17.8761 16.0869 17.9648 16.6452 17.9648C17.0469 17.9648 17.2974 17.8657 17.5687 17.6099C17.8505 17.3384 17.9653 17.067 17.9653 16.6598C17.9653 16.0961 17.887 15.9865 16.5565 14.6501L15.3616 13.4495L15.3459 10.8917C15.3303 8.10425 15.3355 8.17211 15.0172 7.79627C14.6833 7.39955 14.0311 7.21163 13.5771 7.38389Z" fill="#B24FA3"/>
</svg>
