<svg width="37" height="36" viewBox="0 0 37 36" fill="none" xmlns="http://www.w3.org/2000/svg">
<circle cx="18.5" cy="18" r="18" fill="url(#paint0_linear_1236_1142)"/>
<path d="M14.8111 12.0544C14.5552 12.1295 14.451 12.192 14.2124 12.4087C13.9694 12.6254 13.8783 12.7754 13.8783 12.9463C13.8783 13.138 14.0258 13.2797 14.3035 13.3548C15.0715 13.5631 15.206 13.9591 15.1669 15.8928C15.1496 16.8139 15.1322 17.0223 15.0585 17.2848C15.0107 17.4515 14.937 17.6224 14.9023 17.6599C14.8372 17.7183 14.8198 17.7183 14.6766 17.6432C14.1126 17.3515 12.902 15.4886 12.0169 13.559C11.7219 12.9088 11.583 12.7171 11.2836 12.5462L11.0797 12.4337L9.25737 12.4212C7.28751 12.4087 7.18771 12.417 6.92738 12.6212C6.71911 12.788 6.64535 13.0213 6.71044 13.3131C6.80589 13.759 8.09888 16.3138 8.94063 17.7266C10.6024 20.5064 12.0256 22.161 13.5963 23.1362C14.3078 23.578 15.2277 23.9447 16.0477 24.1156C16.8504 24.2864 17.1021 24.3073 18.0436 24.3073C18.8376 24.3073 19.0069 24.299 19.1891 24.2323C19.7054 24.0489 19.8443 23.8155 19.931 22.9695C19.9961 22.3568 20.0655 22.0943 20.2391 21.8025C20.3606 21.5983 20.4951 21.5483 20.6947 21.6233C20.9073 21.7109 21.0678 21.8526 21.9096 22.7278C22.7947 23.6446 22.9726 23.7988 23.3848 24.0114C23.9445 24.3031 23.9402 24.3031 25.9621 24.324C26.9644 24.3323 27.8842 24.3281 28.01 24.3115C28.5134 24.2531 28.8605 23.8447 28.8561 23.3196C28.8561 23.0112 28.7867 22.8111 28.5524 22.4444C28.214 21.9109 27.6933 21.3358 26.6303 20.3314C26.0359 19.7687 25.5108 19.2519 25.4631 19.1853C25.3286 18.9894 25.3503 18.7643 25.5282 18.4809C25.6106 18.3434 26.1009 17.6933 26.6173 17.0306C27.8018 15.5094 28.2183 14.9134 28.5177 14.3216C29.0297 13.3172 28.9993 12.8046 28.4179 12.5421L28.1749 12.4337H25.9751H23.7796L23.5931 12.5587C23.3327 12.7338 23.2893 12.8088 22.9292 13.6006C22.1265 15.3886 21.2587 16.7514 20.4387 17.5099C20.2261 17.7099 20.1393 17.6974 19.9961 17.4557L19.8876 17.2682L19.8616 15.0802C19.8486 13.5631 19.8226 12.8463 19.7879 12.7463C19.6664 12.3962 19.4407 12.1795 19.0719 12.0628C18.894 12.0044 18.5947 11.9961 16.9242 12.0003C15.4924 12.0003 14.9413 12.0169 14.8111 12.0544Z" fill="white"/>
<defs>
<linearGradient id="paint0_linear_1236_1142" x1="18.5" y1="0" x2="18.5" y2="36" gradientUnits="userSpaceOnUse">
<stop stop-color="#E5007B"/>
<stop offset="0.489583" stop-color="#DE0568"/>
<stop offset="1" stop-color="#D70A55"/>
</linearGradient>
</defs>
</svg>
