<svg width="27" height="14" viewBox="0 0 27 14" fill="none" xmlns="http://www.w3.org/2000/svg">
<path d="M14.427 13.933C14.7707 13.8682 15.3895 13.7385 15.3895 12.9604C15.3895 12.9604 15.3208 11.0153 16.2833 10.7559C17.2459 10.4965 18.4835 12.6362 19.7898 13.4791C20.7524 14.0627 21.5087 13.9979 21.5087 13.9979L25.0152 13.933C25.0152 13.933 26.8028 13.8033 25.9778 12.4417C25.909 12.312 25.359 11.4691 23.2963 9.71847C21.1649 7.77329 21.5087 8.09749 24.0526 4.79069C25.634 2.78067 26.3215 1.54873 26.1153 1.09485C25.8403 0.640976 24.7402 0.705815 24.7402 0.705815H20.8212C20.4086 0.705815 20.2024 0.770654 19.9961 1.09485C19.9961 1.09485 19.3773 2.71583 18.5523 4.01262C16.8334 6.8007 16.1458 6.93038 15.8021 6.73586C15.1833 6.41167 15.3208 5.17972 15.3208 4.33681C15.3208 1.41905 15.8021 0.381619 14.427 0.122262C13.5332 -0.00741644 10.3704 -0.137095 9.40788 0.31678C8.92659 0.576137 8.65157 1.03001 8.85784 1.09485C9.0641 1.09485 9.68289 1.15969 10.0267 1.54873C10.5767 2.39163 10.6455 6.41167 9.88916 6.8007C8.85784 7.51393 6.24516 2.78067 5.62636 1.22453C5.48885 0.835494 5.28259 0.770654 4.80131 0.640976H1.01979C0.607266 0.640976 -0.0115266 0.705815 0.263492 1.48389C2.11987 5.11488 5.97014 13.9979 12.9144 13.933H14.427Z" fill="#EF77B2"/>
</svg>
