<svg width="36" height="36" viewBox="0 0 36 36" fill="none" xmlns="http://www.w3.org/2000/svg">
<path d="M16.6594 0.0352614C13.9934 0.288558 12.0097 0.851442 9.76576 1.99128C7.10677 3.34923 4.72212 5.48818 2.9776 8.07743C1.83803 9.78015 0.782878 12.285 0.381919 14.2691C0.0794411 15.7608 0.0231662 16.3448 0.0231662 17.9982C0.0231662 19.6587 0.0794411 20.2357 0.381919 21.7273C0.740672 23.4652 1.61997 25.7238 2.5485 27.2506L2.86505 27.7642L1.45114 30.8741C0.59295 32.7668 0.0302005 34.0896 0.00909743 34.2725C-0.075315 34.9832 0.438194 35.7571 1.11349 35.9401C1.73955 36.1089 2.56257 35.919 7.57808 34.4484L9.50549 33.8856L10.3215 34.2725C12.5654 35.335 14.8797 35.8979 17.4332 35.9893C21.5202 36.13 25.4665 34.8776 28.8289 32.3658C29.7574 31.6692 31.4738 29.9876 32.1491 29.1151C35.6382 24.5839 36.8129 19.0255 35.4412 13.5655C35.0262 11.9121 34.1609 9.87162 33.2887 8.49959C31.9029 6.31139 29.9966 4.36241 27.8441 2.9341C26.9367 2.32901 24.967 1.34396 23.9752 1.00623C22.5402 0.513712 21.07 0.197092 19.5787 0.056372C18.8612 -0.00695215 17.2363 -0.0210268 16.6594 0.0352614Z" fill="url(#paint0_linear_1236_1432)"/>
<path d="M11.5663 9.0384C10.6303 9.28512 9.5228 10.5042 9.15839 11.6797C9.01549 12.1223 8.99405 12.3545 9.0012 13.1817C9.00834 14.0235 9.03692 14.2557 9.20126 14.8144C10.2659 18.4353 14.1458 22.6004 18.4257 24.7192C19.5976 25.2997 20.5479 25.6553 21.4339 25.8367C23.9204 26.3591 25.771 25.619 26.6856 23.7469C26.9571 23.1881 27 23.0358 27 22.6584C26.9929 22.0634 26.7856 21.628 26.2712 21.0983C25.7639 20.5904 25.0636 20.1623 24.2134 19.8575C23.4131 19.5745 22.5342 19.4874 22.2056 19.6616C21.9126 19.814 21.5268 20.2566 21.1338 20.8952C20.4407 22.0054 20.3049 22.0344 19.0331 21.4104C17.0253 20.4308 15.4247 19.0158 14.1672 17.1292C13.6527 16.3455 13.5741 16.1423 13.7028 15.8448C13.7528 15.7214 13.9814 15.3876 14.2029 15.1119C14.9532 14.1904 15.0889 13.7477 14.9246 12.7754C14.6531 11.2298 13.7313 9.69872 12.7524 9.19078C12.4166 9.01663 11.8879 8.95133 11.5663 9.0384Z" fill="white"/>
<defs>
<linearGradient id="paint0_linear_1236_1432" x1="18" y1="0" x2="18" y2="36" gradientUnits="userSpaceOnUse">
<stop stop-color="#941B81"/>
<stop offset="0.458333" stop-color="#801F82"/>
<stop offset="1" stop-color="#672383"/>
</linearGradient>
</defs>
</svg>
